<svg width="128" height="123" viewBox="0 0 128 123" fill="none" xmlns="http://www.w3.org/2000/svg">
<g clip-path="url(#clip0_3_2)">
<path d="M23 25C28.6306 26.2512 33.9596 27.5029 39.4414 29.1641C40.6371 29.5245 41.8328 29.885 43.0647 30.2563C44.549 30.708 46.0332 31.1597 47.5625 31.625C52.3269 33.0688 57.0912 34.5125 62 36C62 54.81 62 73.62 62 93C56.8911 92.1485 52.8605 90.8731 48.1953 88.8398C47.5526 88.5656 46.91 88.2914 46.2478 88.0089C43.8704 86.9923 41.498 85.9642 39.125 84.9375C33.8038 82.6481 28.4825 80.3588 23 78C23 60.51 23 43.02 23 25Z" fill="#FE6E02"/>
<path d="M102 25C102 42.49 102 59.98 102 78C89.8861 83.5063 89.8861 83.5063 83.8125 86.0625C79.9074 87.7196 76.0757 89.4173 72.3125 91.375C69 93 69 93 66 93C66 74.19 66 55.38 66 36C68.97 35.01 71.94 34.02 75 33C76.9255 32.3257 78.849 31.6456 80.7695 30.957C82.2555 30.4301 82.2555 30.4301 83.7715 29.8926C85.8199 29.1651 87.8667 28.4332 89.9121 27.6973C90.8963 27.3499 91.8805 27.0025 92.8945 26.6445C93.7799 26.3285 94.6652 26.0124 95.5774 25.6868C98 25 98 25 102 25Z" fill="#FE7006"/>
<path d="M128 16C128 42.4 128 68.8 128 96C122.72 98.31 117.44 100.62 112 103C106.548 105.702 106.548 105.702 101.113 108.438C94.7132 111.65 88.1531 114.361 81.4961 116.988C78.2623 118.299 75.0852 119.722 71.9102 121.168C70 122 70 122 67 123C67 117.39 67 111.78 67 106C80.1388 99.3735 93.3606 93.0759 106.885 87.2712C110.179 86.014 110.179 86.014 113 84C113.124 82.0065 113.178 80.0086 113.205 78.0115C113.225 76.7302 113.245 75.449 113.266 74.1289C113.283 72.72 113.3 71.3112 113.316 69.9023C113.337 68.4689 113.358 67.0354 113.379 65.6019C113.435 61.8225 113.484 58.0429 113.532 54.2634C113.582 50.4093 113.638 46.5552 113.693 42.7012C113.801 35.1342 113.902 27.5671 114 20C115.957 19.3297 117.916 18.6639 119.875 18C120.966 17.6287 122.056 17.2575 123.18 16.875C126 16 126 16 128 16Z" fill="#FE7005"/>
<path d="M5.66319e-05 17C3.63006 17.66 7.26006 18.32 11.0001 19C11.0001 40.78 11.0001 62.56 11.0001 85C13.9701 85.99 16.9401 86.98 20.0001 88C21.6362 88.6382 23.2646 89.2975 24.8773 89.9929C25.7174 90.3531 26.5576 90.7132 27.4233 91.0843C28.2955 91.4625 29.1678 91.8408 30.0665 92.2305C31.4457 92.8234 31.4457 92.8234 32.8528 93.4283C35.7576 94.6779 38.6601 95.9326 41.5626 97.1875C43.5448 98.0414 45.5273 98.8949 47.5098 99.748C52.3416 101.828 57.1713 103.913 62.0001 106C62.0001 111.28 62.0001 116.56 62.0001 122C54.1253 120.875 54.1253 120.875 50.971 119.437C49.9081 118.96 49.9081 118.96 48.8237 118.474C48.0788 118.13 47.3339 117.785 46.5665 117.43C45.7709 117.07 44.9753 116.711 44.1556 116.341C41.6207 115.194 39.0915 114.035 36.5626 112.875C34.0734 111.743 31.583 110.614 29.0927 109.485C27.4566 108.743 25.8212 107.999 24.1865 107.254C18.0817 104.473 11.9467 101.769 5.78144 99.1252C1.10578 97.1057 1.10578 97.1057 5.66319e-05 96C-0.0949489 93.5356 -0.125523 91.0993 -0.113469 88.6345C-0.113615 87.8638 -0.113761 87.0932 -0.113911 86.2991C-0.113212 83.7398 -0.105419 81.1805 -0.0975996 78.6211C-0.0957355 76.8513 -0.0943116 75.0816 -0.0933119 73.3118C-0.0894862 68.6445 -0.0796556 63.9772 -0.0686079 59.3099C-0.0583948 54.551 -0.0538145 49.7921 -0.0487715 45.0332C-0.0380333 35.6888 -0.0209564 26.3444 5.66319e-05 17Z" fill="#FE7107"/>
<path d="M80.25 15.9376C82.1503 16.491 84.0513 17.0418 85.9531 17.5899C86.8278 17.8424 87.7024 18.0949 88.6035 18.3551C91.3801 19.1024 94.15 19.6223 97 20.0001C97 20.6601 97 21.3201 97 22.0001C92.8603 23.438 88.7161 24.8616 84.5671 26.2726C83.1586 26.7537 81.7513 27.2387 80.3455 27.7276C78.3157 28.4328 76.2815 29.1239 74.2461 29.8126C72.4158 30.441 72.4158 30.441 70.5486 31.0821C64.0555 32.7618 59.2204 32.0145 53 29.7501C46.3619 27.3878 39.6959 25.5597 32.8516 23.8946C31.9105 23.5994 30.9695 23.3042 30 23.0001C29.67 22.3401 29.34 21.6801 29 21.0001C34.2323 19.5292 39.468 18.0724 44.709 16.6329C46.647 16.0976 48.5817 15.5502 50.5156 15.0001C51.5005 14.732 52.4853 14.4638 53.5 14.1876C54.3353 13.9543 55.1706 13.721 56.0312 13.4806C64.6451 12.0865 71.9721 13.4531 80.25 15.9376Z" fill="#FE720A"/>
<path d="M71 1.0001C72.1537 1.26404 73.3074 1.52797 74.4961 1.79991C77.9461 2.60295 81.3817 3.45689 84.8159 4.32432C96.8081 7.34853 108.751 10.2048 121 12.0001C121 12.9901 121 13.9801 121 15.0001C111.916 18.2173 104.041 15.6361 95 13.1876C92.9584 12.6469 90.9168 12.1065 88.875 11.5665C86.079 10.8218 83.2833 10.0759 80.4883 9.32774C78.3275 8.75224 76.1642 8.18735 74 7.6251C72.8038 7.30799 71.6075 6.99088 70.375 6.66416C61.9234 5.00122 54.7986 7.10256 46.625 9.2501C44.1134 9.89121 41.6017 10.5318 39.0898 11.172C35.7754 12.0251 32.4616 12.8803 29.1489 13.7403C26.8312 14.3385 24.5102 14.9214 22.1875 15.5001C20.9436 15.8198 19.6996 16.1395 18.418 16.4689C14.681 17.0497 11.6959 16.7194 8 16.0001C8 15.0101 8 14.0201 8 13.0001C12.9579 11.7907 17.916 10.5823 22.8743 9.37461C24.5527 8.96567 26.2311 8.5565 27.9094 8.14707C29.1192 7.85196 29.1192 7.85196 30.3535 7.55088C31.5644 7.25547 31.5644 7.25547 32.7997 6.95408C35.2533 6.35772 37.7084 5.76778 40.1636 5.17783C43.3515 4.4094 46.5276 3.60673 49.6997 2.77549C63.6996 -0.83688 63.6996 -0.83688 71 1.0001Z" fill="#FE7D1C"/>
</g>
<defs>
<clipPath id="clip0_3_2">
<rect width="128" height="123" fill="white"/>
</clipPath>
</defs>
</svg>
