<svg width="300" height="145" viewBox="0 0 300 145" fill="none" xmlns="http://www.w3.org/2000/svg">
<path d="M34 36C39.6306 37.2512 44.9596 38.5029 50.4414 40.1641C51.6371 40.5245 52.8328 40.885 54.0647 41.2563C55.549 41.708 57.0332 42.1597 58.5625 42.625C63.3269 44.0688 68.0912 45.5125 73 47C73 65.81 73 84.62 73 104C67.8911 103.149 63.8605 101.873 59.1953 99.8398C58.5526 99.5656 57.91 99.2914 57.2478 99.0089C54.8704 97.9923 52.498 96.9642 50.125 95.9375C44.8038 93.6481 39.4825 91.3588 34 89C34 71.51 34 54.02 34 36Z" fill="#FE6E02"/>
<path d="M11.0001 28C14.6301 28.66 18.2601 29.32 22.0001 30C22.0001 51.78 22.0001 73.56 22.0001 96C24.9701 96.99 27.9401 97.98 31.0001 99C32.6362 99.6382 34.2646 100.298 35.8773 100.993C36.7174 101.353 37.5576 101.713 38.4233 102.084C39.2955 102.463 40.1678 102.841 41.0665 103.23C42.4457 103.823 42.4457 103.823 43.8528 104.428C46.7576 105.678 49.6601 106.933 52.5626 108.188C54.5448 109.041 56.5273 109.895 58.5098 110.748C63.3416 112.828 68.1713 114.913 73.0001 117C73.0001 122.28 73.0001 127.56 73.0001 133C65.1253 131.875 65.1253 131.875 61.971 130.437C60.9081 129.96 60.9081 129.96 59.8237 129.474C59.0788 129.13 58.3339 128.785 57.5665 128.43C56.7709 128.07 55.9753 127.711 55.1556 127.341C52.6207 126.194 50.0915 125.035 47.5626 123.875C45.0734 122.743 42.583 121.614 40.0927 120.485C38.4566 119.743 36.8212 118.999 35.1865 118.254C29.0817 115.473 22.9467 112.769 16.7814 110.125C12.1058 108.106 12.1058 108.106 11.0001 107C10.9051 104.536 10.8745 102.099 10.8865 99.6345C10.8864 98.8638 10.8862 98.0932 10.8861 97.2991C10.8868 94.7398 10.8946 92.1805 10.9024 89.6211C10.9043 87.8513 10.9057 86.0816 10.9067 84.3118C10.9105 79.6445 10.9203 74.9772 10.9314 70.3099C10.9416 65.551 10.9462 60.7921 10.9512 56.0332C10.962 46.6888 10.979 37.3444 11.0001 28Z" fill="#FE7107"/>
<path d="M113 36C113 53.49 113 70.98 113 89C100.886 94.5063 100.886 94.5063 94.8125 97.0625C90.9074 98.7196 87.0757 100.417 83.3125 102.375C80 104 80 104 77 104C77 85.19 77 66.38 77 47C79.97 46.01 82.94 45.02 86 44C87.9255 43.3257 89.849 42.6456 91.7695 41.957C93.2555 41.4301 93.2555 41.4301 94.7715 40.8926C96.8199 40.1651 98.8667 39.4332 100.912 38.6973C101.896 38.3499 102.881 38.0025 103.895 37.6445C104.78 37.3285 105.665 37.0124 106.577 36.6868C109 36 109 36 113 36Z" fill="#FE7006"/>
<path d="M139 27C139 53.4 139 79.8 139 107C133.72 109.31 128.44 111.62 123 114C117.548 116.702 117.548 116.702 112.113 119.438C105.713 122.65 99.1531 125.361 92.4961 127.988C89.2623 129.299 86.0852 130.722 82.9102 132.168C81 133 81 133 78 134C78 128.39 78 122.78 78 117C91.1388 110.373 104.361 104.076 117.885 98.2712C121.179 97.014 121.179 97.014 124 95C124.124 93.0065 124.178 91.0086 124.205 89.0115C124.225 87.7302 124.245 86.449 124.266 85.1289C124.283 83.72 124.3 82.3112 124.316 80.9023C124.337 79.4689 124.358 78.0354 124.379 76.6019C124.435 72.8225 124.484 69.0429 124.532 65.2634C124.582 61.4093 124.638 57.5552 124.693 53.7012C124.801 46.1342 124.902 38.5671 125 31C126.957 30.3297 128.916 29.6639 130.875 29C131.966 28.6287 133.056 28.2575 134.18 27.875C137 27 137 27 139 27Z" fill="#FE7005"/>
<path d="M91.25 26.9376C93.1503 27.491 95.0513 28.0418 96.9531 28.5899C97.8278 28.8424 98.7024 29.0949 99.6035 29.3551C102.38 30.1024 105.15 30.6223 108 31.0001C108 31.6601 108 32.3201 108 33.0001C103.86 34.438 99.7161 35.8616 95.5671 37.2726C94.1586 37.7537 92.7513 38.2387 91.3455 38.7276C89.3157 39.4328 87.2815 40.1239 85.2461 40.8126C83.4158 41.441 83.4158 41.441 81.5486 42.0821C75.0555 43.7618 70.2204 43.0145 64 40.7501C57.3619 38.3878 50.6959 36.5597 43.8516 34.8946C42.9105 34.5994 41.9695 34.3042 41 34.0001C40.67 33.3401 40.34 32.6801 40 32.0001C45.2323 30.5292 50.468 29.0724 55.709 27.6329C57.647 27.0976 59.5817 26.5502 61.5156 26.0001C62.5005 25.732 63.4853 25.4638 64.5 25.1876C65.3353 24.9543 66.1706 24.721 67.0312 24.4806C75.6451 23.0865 82.9721 24.4531 91.25 26.9376Z" fill="#FE720A"/>
<path d="M82 12.0001C83.1537 12.264 84.3074 12.528 85.4961 12.7999C88.9461 13.6029 92.3817 14.4569 95.8159 15.3243C107.808 18.3485 119.751 21.2048 132 23.0001C132 23.9901 132 24.9801 132 26.0001C122.916 29.2173 115.041 26.6361 106 24.1876C103.958 23.6469 101.917 23.1065 99.875 22.5665C97.079 21.8218 94.2833 21.0759 91.4883 20.3277C89.3275 19.7522 87.1642 19.1874 85 18.6251C83.8038 18.308 82.6075 17.9909 81.375 17.6642C72.9234 16.0012 65.7986 18.1026 57.625 20.2501C55.1134 20.8912 52.6017 21.5318 50.0898 22.172C46.7754 23.0251 43.4616 23.8803 40.1489 24.7403C37.8312 25.3385 35.5102 25.9214 33.1875 26.5001C31.9436 26.8198 30.6996 27.1395 29.418 27.4689C25.681 28.0497 22.6959 27.7194 19 27.0001C19 26.0101 19 25.0201 19 24.0001C23.9579 22.7907 28.916 21.5823 33.8743 20.3746C35.5527 19.9657 37.2311 19.5565 38.9094 19.1471C40.1192 18.852 40.1192 18.852 41.3535 18.5509C42.5644 18.2555 42.5644 18.2555 43.7997 17.9541C46.2533 17.3577 48.7084 16.7678 51.1636 16.1778C54.3515 15.4094 57.5276 14.6067 60.6997 13.7755C74.6996 10.1631 74.6996 10.1631 82 12.0001Z" fill="#FE7D1C"/>
<path d="M157.811 56.8182V83H152.276V56.8182H157.811ZM174.498 67.7486V72.0696H162.557V67.7486H174.498ZM202.341 65.9844H196.742C196.64 65.2599 196.431 64.6165 196.115 64.054C195.8 63.483 195.395 62.9972 194.901 62.5966C194.407 62.196 193.836 61.8892 193.188 61.6761C192.549 61.4631 191.854 61.3565 191.104 61.3565C189.749 61.3565 188.569 61.6932 187.563 62.3665C186.557 63.0312 185.777 64.0028 185.223 65.2812C184.669 66.5511 184.392 68.0937 184.392 69.9091C184.392 71.7756 184.669 73.3437 185.223 74.6136C185.786 75.8835 186.57 76.8423 187.576 77.4901C188.581 78.1378 189.745 78.4616 191.066 78.4616C191.807 78.4616 192.493 78.3636 193.124 78.1676C193.763 77.9716 194.33 77.6861 194.824 77.3111C195.319 76.9276 195.728 76.4631 196.051 75.9176C196.384 75.3722 196.614 74.75 196.742 74.0511L202.341 74.0767C202.196 75.2784 201.834 76.4375 201.255 77.554C200.684 78.6619 199.912 79.6548 198.941 80.5327C197.978 81.402 196.827 82.0923 195.489 82.6037C194.159 83.1065 192.655 83.358 190.976 83.358C188.641 83.358 186.553 82.8295 184.712 81.7727C182.88 80.7159 181.431 79.1861 180.365 77.1832C179.309 75.1804 178.78 72.7557 178.78 69.9091C178.78 67.054 179.317 64.625 180.391 62.6222C181.465 60.6193 182.922 59.0937 184.763 58.0455C186.604 56.9886 188.675 56.4602 190.976 56.4602C192.493 56.4602 193.9 56.6733 195.195 57.0994C196.499 57.5256 197.654 58.1477 198.659 58.9659C199.665 59.7756 200.483 60.7685 201.114 61.9446C201.753 63.1207 202.162 64.4673 202.341 65.9844ZM215.081 83.3835C213.095 83.3835 211.377 82.9616 209.929 82.1179C208.488 81.2656 207.376 80.081 206.592 78.5639C205.808 77.0384 205.416 75.2699 205.416 73.2585C205.416 71.2301 205.808 69.4574 206.592 67.9403C207.376 66.4148 208.488 65.2301 209.929 64.3864C211.377 63.5341 213.095 63.108 215.081 63.108C217.066 63.108 218.779 63.5341 220.22 64.3864C221.669 65.2301 222.785 66.4148 223.569 67.9403C224.353 69.4574 224.745 71.2301 224.745 73.2585C224.745 75.2699 224.353 77.0384 223.569 78.5639C222.785 80.081 221.669 81.2656 220.22 82.1179C218.779 82.9616 217.066 83.3835 215.081 83.3835ZM215.106 79.1648C216.01 79.1648 216.764 78.9091 217.369 78.3977C217.974 77.8778 218.43 77.1705 218.737 76.2756C219.052 75.3807 219.21 74.3622 219.21 73.2202C219.21 72.0781 219.052 71.0597 218.737 70.1648C218.43 69.2699 217.974 68.5625 217.369 68.0426C216.764 67.5227 216.01 67.2628 215.106 67.2628C214.194 67.2628 213.427 67.5227 212.805 68.0426C212.191 68.5625 211.727 69.2699 211.412 70.1648C211.105 71.0597 210.951 72.0781 210.951 73.2202C210.951 74.3622 211.105 75.3807 211.412 76.2756C211.727 77.1705 212.191 77.8778 212.805 78.3977C213.427 78.9091 214.194 79.1648 215.106 79.1648ZM235.522 83.3196C234.031 83.3196 232.68 82.9361 231.47 82.169C230.268 81.3935 229.314 80.2557 228.606 78.7557C227.907 77.2472 227.558 75.3977 227.558 73.2074C227.558 70.9574 227.92 69.0866 228.645 67.5952C229.369 66.0952 230.332 64.9744 231.534 64.233C232.744 63.483 234.069 63.108 235.51 63.108C236.609 63.108 237.525 63.2955 238.258 63.6705C239 64.0369 239.596 64.4972 240.048 65.0511C240.508 65.5966 240.858 66.1335 241.096 66.6619H241.262V56.8182H246.696V83H241.326V79.8551H241.096C240.841 80.4006 240.478 80.9418 240.01 81.4787C239.549 82.0071 238.949 82.446 238.207 82.7955C237.474 83.1449 236.579 83.3196 235.522 83.3196ZM237.248 78.9858C238.126 78.9858 238.868 78.7472 239.473 78.2699C240.086 77.7841 240.555 77.1065 240.879 76.2372C241.211 75.3679 241.377 74.3494 241.377 73.1818C241.377 72.0142 241.216 71 240.892 70.1392C240.568 69.2784 240.099 68.6136 239.485 68.1449C238.872 67.6761 238.126 67.4418 237.248 67.4418C236.353 67.4418 235.599 67.6847 234.985 68.1705C234.372 68.6562 233.907 69.3295 233.592 70.1903C233.277 71.0511 233.119 72.0483 233.119 73.1818C233.119 74.3239 233.277 75.3338 233.592 76.2116C233.916 77.081 234.38 77.7628 234.985 78.2571C235.599 78.7429 236.353 78.9858 237.248 78.9858ZM260.122 83.3835C258.102 83.3835 256.364 82.9744 254.906 82.1562C253.457 81.3295 252.341 80.1619 251.557 78.6534C250.773 77.1364 250.381 75.3423 250.381 73.2713C250.381 71.2514 250.773 69.4787 251.557 67.9531C252.341 66.4276 253.445 65.2386 254.868 64.3864C256.3 63.5341 257.979 63.108 259.905 63.108C261.2 63.108 262.406 63.3168 263.523 63.7344C264.648 64.1435 265.628 64.7614 266.463 65.5881C267.307 66.4148 267.963 67.4545 268.432 68.7074C268.901 69.9517 269.135 71.4091 269.135 73.0795V74.5753H252.554V71.2003H264.009C264.009 70.4162 263.838 69.7216 263.497 69.1165C263.156 68.5114 262.683 68.0384 262.078 67.6974C261.482 67.348 260.787 67.1733 259.994 67.1733C259.168 67.1733 258.435 67.3651 257.795 67.7486C257.165 68.1236 256.67 68.6307 256.312 69.2699C255.955 69.9006 255.771 70.6037 255.763 71.3793V74.5881C255.763 75.5597 255.942 76.3991 256.3 77.1065C256.666 77.8139 257.182 78.3594 257.847 78.7429C258.511 79.1264 259.3 79.3182 260.212 79.3182C260.817 79.3182 261.371 79.233 261.874 79.0625C262.376 78.892 262.807 78.6364 263.165 78.2955C263.523 77.9545 263.795 77.5369 263.983 77.0426L269.02 77.375C268.764 78.5852 268.24 79.642 267.447 80.5455C266.663 81.4403 265.649 82.1392 264.405 82.642C263.169 83.1364 261.741 83.3835 260.122 83.3835Z" fill="black"/>
</svg>
